<svg xmlns="http://www.w3.org/2000/svg" width="600" height="400" viewBox="0 0 600 400"><rect width="100%" height="100%" fill="#cccccc"/><path fill="#333333" d="M128.02 195.9h3.78q1.71 0 2.98-.43t2.09-1.18q.82-.76 1.23-1.79.4-1.04.4-2.27 0-2.48-1.63-3.81t-4.98-1.33h-3.87zm11.2 5.04 8.15 12.01h-5.47q-1.55 0-2.25-1.21l-6.84-10.42q-.38-.59-.84-.83-.46-.25-1.36-.25h-2.59v12.71h-6.05v-32.53h9.92q3.31 0 5.68.68 2.37.69 3.89 1.93 1.52 1.23 2.24 2.95.72 1.73.72 3.79 0 1.65-.48 3.11-.49 1.46-1.4 2.66-.91 1.19-2.25 2.09t-3.05 1.42q.59.33 1.08.79.5.47.9 1.1m15.19-2.19h10.49q0-1.08-.31-2.03-.3-.96-.91-1.68t-1.54-1.14q-.93-.41-2.17-.41-2.41 0-3.79 1.37-1.39 1.37-1.77 3.89m14.18 3.36H154.3q.13 1.77.63 3.07.49 1.29 1.3 2.13.81.85 1.93 1.26 1.11.42 2.46.42t2.33-.31q.98-.32 1.71-.7t1.28-.7q.55-.31 1.07-.31.7 0 1.04.51l1.59 2.03q-.92 1.08-2.07 1.81-1.14.73-2.39 1.17t-2.54.62q-1.3.18-2.51.18-2.41 0-4.48-.8t-3.6-2.36q-1.53-1.57-2.41-3.87-.88-2.31-.88-5.35 0-2.36.77-4.44.76-2.08 2.19-3.62t3.49-2.44q2.06-.91 4.65-.91 2.18 0 4.02.7 1.85.7 3.18 2.04 1.32 1.34 2.08 3.28.75 1.95.75 4.45 0 1.26-.27 1.7t-1.03.44m23.46-9.39-1.46 2.03q-.25.31-.48.49-.24.18-.69.18-.43 0-.83-.26-.41-.25-.97-.58t-1.34-.59q-.77-.25-1.92-.25-1.46 0-2.57.52-1.1.53-1.83 1.52t-1.09 2.4q-.36 1.4-.36 3.18 0 1.85.39 3.29.4 1.44 1.14 2.42.74.97 1.8 1.48t2.38.51q1.33 0 2.15-.33.82-.32 1.39-.72.56-.39.98-.72.41-.32.93-.32.67 0 1.01.51l1.6 2.03q-.92 1.08-2 1.81t-2.24 1.17-2.39.62q-1.22.18-2.44.18-2.14 0-4.03-.8t-3.3-2.33q-1.42-1.53-2.24-3.75-.82-2.21-.82-5.05 0-2.54.73-4.71t2.15-3.76q1.41-1.58 3.51-2.48 2.09-.91 4.81-.91 2.59 0 4.54.84 1.94.83 3.49 2.38m3.87-2.86h5.58v23.09h-5.58zm6.35-6.72q0 .72-.29 1.35-.3.63-.78 1.1t-1.14.75q-.65.29-1.39.29-.72 0-1.36-.29-.64-.28-1.12-.75-.47-.47-.75-1.1t-.28-1.35q0-.74.28-1.4.28-.65.75-1.12.48-.47 1.12-.76.64-.28 1.36-.28.74 0 1.39.28.66.29 1.14.76t.78 1.12q.29.66.29 1.4m10.46 13.47v10.36q.95 1.14 2.06 1.61 1.11.48 2.42.48 1.26 0 2.27-.48 1.01-.47 1.72-1.43.71-.97 1.09-2.45.39-1.47.39-3.47 0-2.03-.33-3.43-.33-1.41-.93-2.29-.61-.87-1.48-1.28-.86-.41-1.97-.41-1.73 0-2.94.74-1.22.73-2.3 2.05m-.74-5.73.45 2.14q1.42-1.6 3.22-2.59t4.23-.99q1.89 0 3.45.79 1.56.78 2.7 2.28 1.14 1.49 1.76 3.69.61 2.19.61 5.03 0 2.59-.69 4.79-.7 2.21-1.99 3.83-1.3 1.62-3.13 2.53-1.84.91-4.11.91-1.93 0-3.31-.6-1.37-.59-2.45-1.65v9.45h-5.56v-30.63h3.4q1.08 0 1.42 1.02m25.13 7.87h10.49q0-1.08-.31-2.03-.3-.96-.91-1.68t-1.54-1.14q-.93-.41-2.17-.41-2.41 0-3.79 1.37-1.39 1.37-1.77 3.89m14.18 3.36h-14.29q.13 1.77.63 3.07.49 1.29 1.3 2.13.81.85 1.93 1.26 1.11.42 2.46.42t2.33-.31q.98-.32 1.71-.7t1.28-.7q.55-.31 1.07-.31.7 0 1.04.51l1.59 2.03q-.92 1.08-2.07 1.81-1.14.73-2.39 1.17t-2.54.62q-1.3.18-2.51.18-2.41 0-4.48-.8t-3.6-2.36q-1.53-1.57-2.41-3.87-.88-2.31-.88-5.35 0-2.36.77-4.44.76-2.08 2.19-3.62t3.49-2.44q2.06-.91 4.65-.91 2.18 0 4.02.7 1.85.7 3.18 2.04 1.32 1.34 2.08 3.28.75 1.95.75 4.45 0 1.26-.27 1.7t-1.03.44m39.37-21.69H296v32.53h-3.1q-.72 0-1.2-.24-.49-.23-.94-.79l-16.99-21.69q.14 1.48.14 2.74v19.98h-5.33v-32.53h3.17q.38 0 .66.03t.5.13q.21.1.41.3.21.19.45.5l17.06 21.78q-.07-.78-.11-1.55-.05-.77-.05-1.42zm21.92 9.08q2.56 0 4.67.84 2.1.83 3.6 2.36 1.49 1.53 2.3 3.73.81 2.21.81 4.93 0 2.75-.81 4.95-.81 2.21-2.3 3.76-1.5 1.55-3.6 2.39-2.11.83-4.67.83-2.59 0-4.71-.83-2.11-.84-3.61-2.39-1.49-1.55-2.31-3.76-.83-2.2-.83-4.95 0-2.72.83-4.93.82-2.2 2.31-3.73 1.5-1.53 3.61-2.36 2.12-.84 4.71-.84m0 19.51q2.88 0 4.26-1.93 1.38-1.94 1.38-5.67 0-3.74-1.38-5.69-1.38-1.96-4.26-1.96-2.93 0-4.33 1.97-1.41 1.97-1.41 5.68t1.41 5.66q1.4 1.94 4.33 1.94m23.33 4.3q-3.02 0-4.62-1.7-1.61-1.7-1.61-4.69v-12.89h-2.37q-.45 0-.76-.29-.32-.3-.32-.88v-2.21l3.72-.6 1.17-6.3q.11-.45.42-.7.32-.25.81-.25h2.88v7.27h6.17v3.96h-6.17v12.51q0 1.08.53 1.69.53.6 1.45.6.52 0 .87-.12.35-.13.61-.26t.46-.26q.2-.12.4-.12.25 0 .41.12.16.13.34.37l1.66 2.7q-1.21 1.02-2.79 1.53-1.57.52-3.26.52m41.38-28.08h-14.45v9.63h12.2v4.84h-12.2v13.25h-6.07v-32.53h20.52zm14.28 4.27q2.57 0 4.67.84 2.11.83 3.6 2.36 1.5 1.53 2.31 3.73.81 2.21.81 4.93 0 2.75-.81 4.95-.81 2.21-2.31 3.76-1.49 1.55-3.6 2.39-2.1.83-4.67.83-2.58 0-4.7-.83-2.11-.84-3.61-2.39t-2.32-3.76q-.82-2.2-.82-4.95 0-2.72.82-4.93.82-2.2 2.32-3.73t3.61-2.36q2.12-.84 4.7-.84m0 19.51q2.88 0 4.27-1.93 1.38-1.94 1.38-5.67 0-3.74-1.38-5.69-1.39-1.96-4.27-1.96-2.92 0-4.33 1.97-1.4 1.97-1.4 5.68t1.4 5.66q1.41 1.94 4.33 1.94m29.97-19.15h5.56v23.09h-3.4q-1.1 0-1.39-1.01l-.38-1.85q-1.42 1.44-3.13 2.33t-4.03.89q-1.89 0-3.34-.64t-2.44-1.81-1.5-2.78q-.5-1.61-.5-3.54v-14.68h5.55v14.68q0 2.11.98 3.27t2.94 1.16q1.44 0 2.7-.64t2.38-1.77zm15.87 1.02.38 1.82q.7-.7 1.47-1.29.78-.6 1.65-1.02.86-.41 1.85-.65t2.16-.24q1.89 0 3.35.65 1.47.64 2.45 1.8.97 1.16 1.48 2.76.51 1.61.51 3.55v14.69h-5.56v-14.69q0-2.12-.97-3.28t-2.95-1.16q-1.44 0-2.7.66-1.26.65-2.38 1.77v16.7h-5.56v-23.09h3.4q1.08 0 1.42 1.02m35.05 15.23v-10.35q-.94-1.15-2.06-1.62-1.11-.47-2.39-.47-1.26 0-2.28.47-1.01.47-1.73 1.43-.72.95-1.1 2.43-.38 1.47-.38 3.48 0 2.02.32 3.43.33 1.4.94 2.29.6.89 1.48 1.28.88.4 1.96.4 1.73 0 2.95-.72 1.21-.72 2.29-2.05m0-26.6h5.56v33.44h-3.4q-1.1 0-1.39-1.01l-.48-2.23q-1.39 1.6-3.2 2.59t-4.22.99q-1.89 0-3.47-.79-1.57-.79-2.71-2.28-1.13-1.5-1.75-3.7-.62-2.21-.62-5.04 0-2.57.7-4.78.69-2.2 2-3.82 1.3-1.62 3.13-2.53 1.82-.91 4.09-.91 1.94 0 3.31.61 1.37.6 2.45 1.64z"/></svg>